<?xml version="1.0" encoding="UTF-8"?>
<svg id="_圖層_2" data-name="圖層 2" xmlns="http://www.w3.org/2000/svg" viewBox="0 0 360.71 360.71">
  <defs>
    <style>
      .cls-1 {
        fill: #fff;
      }
    </style>
  </defs>
  <g id="Layer_1" data-name="Layer 1">
    <g>
      <path class="cls-1" d="M344.9,357.12c-1.62,1.32-3.29,2.49-4.98,3.59h20.79v-23.29c-3.63,7.49-8.87,14.07-15.81,19.7Z"/>
      <path class="cls-1" d="M283.35,357.35c-6.02-8.04-7.45-18.29-4.3-30.75,3.22-12.76,9.85-23.08,19.9-30.98,10.04-7.89,21.28-11.84,33.74-11.84s21.7,3.95,27.76,11.84c.1.13.18.28.28.41V0H0v360.71h11.71c-4.41-10.72-4.51-24.48-.26-41.3l28.5-112.81c.41-1.61,1.19-2.88,2.34-3.81,1.15-.92,2.54-1.38,4.16-1.38h54.67c1.61,0,2.77.46,3.46,1.38.68.92.83,2.19.42,3.81l-24.91,98.62c-1.75,6.92-1.38,12.52,1.12,16.78,2.5,4.27,6.63,6.4,12.4,6.4,5.07,0,9.68-1.56,13.81-4.67,4.13-3.12,7.33-7.32,9.59-12.63.35-.46.64-1.15.87-2.08l25.88-102.42c.41-1.61,1.19-2.88,2.35-3.81,1.15-.92,2.54-1.38,4.16-1.38h54.67c1.61,0,2.76.46,3.46,1.38.69.92.83,2.19.42,3.81l-38.93,154.1h21.36l65.37-258.78c.41-1.61,1.19-2.88,2.35-3.81,1.15-.92,2.54-1.38,4.16-1.38h54.67c1.61,0,2.76.46,3.46,1.38.69.92.83,2.19.42,3.81l-65.37,258.78h30.05c-1.06-1.04-2.08-2.14-2.99-3.36Z"/>
    </g>
  </g>
</svg>