<?xml version="1.0" encoding="UTF-8"?>
<svg id="_圖層_2" data-name="圖層 2" xmlns="http://www.w3.org/2000/svg" viewBox="0 0 1113.91 453.54">
  <defs>
    <style>
      .cls-1 {
        fill: #fff;
      }
    </style>
  </defs>
  <g id="Layer_1" data-name="Layer 1">
    <g>
      <g>
        <path class="cls-1" d="M119.23,67.98c.99-.8,2.2-1.2,3.6-1.2h47.31c1.39,0,2.39.4,2.99,1.2.59.8.72,1.9.37,3.29l-37.07,146.73c-.35,1.4-1.03,2.5-2.03,3.29-1,.8-2.2,1.2-3.6,1.2h-47.31c-1.4,0-2.4-.4-2.99-1.2-.6-.79-.72-1.9-.37-3.29l2.5-9.88c.15-.6.05-1-.3-1.2-.35-.2-.8,0-1.35.6-11.11,11.58-25.35,17.37-42.72,17.37-15.17,0-26-4.94-32.49-14.82-6.49-9.88-7.51-23.61-3.07-41.17l24.66-97.62c.35-1.39,1.03-2.49,2.03-3.29,1-.8,2.2-1.2,3.6-1.2h47.31c1.39,0,2.39.4,2.99,1.2.59.8.72,1.9.36,3.29l-21.56,85.34c-1.51,5.99-1.19,10.83.97,14.52,2.16,3.7,5.74,5.54,10.73,5.54,4.39,0,8.37-1.35,11.95-4.04,3.57-2.7,6.34-6.34,8.3-10.93.3-.4.55-1,.75-1.8l22.39-88.64c.35-1.39,1.03-2.49,2.03-3.29Z"/>
        <path class="cls-1" d="M313.72,70.97c6.87,4.39,11.58,10.83,14.14,19.31,2.54,8.49,2.36,18.52-.57,30.1l-24.66,97.62c-.35,1.4-1.03,2.5-2.03,3.29-1,.8-2.2,1.2-3.6,1.2h-47.31c-1.4,0-2.4-.4-2.99-1.2-.6-.79-.72-1.9-.36-3.29l21.56-85.34c1.51-5.99,1.19-10.83-.97-14.52-2.17-3.69-5.74-5.54-10.73-5.54s-9.8,1.85-13.83,5.54c-4.03,3.7-6.8,8.53-8.31,14.52l-21.56,85.34c-.35,1.4-1.03,2.5-2.03,3.29-1,.8-2.2,1.2-3.6,1.2h-47.31c-1.4,0-2.4-.4-2.99-1.2-.6-.79-.72-1.9-.36-3.29l37.07-146.73c.35-1.39,1.03-2.49,2.03-3.29,1-.8,2.2-1.2,3.6-1.2h47.31c1.39,0,2.39.4,2.99,1.2.59.8.72,1.9.36,3.29l-2.72,10.78c-.2.8-.13,1.3.22,1.5.35.2.7,0,1.05-.6,10.71-12.38,24.16-18.57,40.32-18.57,9.98,0,18.41,2.2,25.29,6.59Z"/>
        <path class="cls-1" d="M321.85,221.3c-.6-.79-.72-1.9-.36-3.29l37.07-146.73c.35-1.39,1.03-2.49,2.03-3.29,1-.8,2.2-1.2,3.6-1.2h47.31c1.39,0,2.39.4,2.99,1.2.59.8.72,1.9.36,3.29l-37.07,146.73c-.35,1.4-1.03,2.5-2.03,3.29-1,.8-2.2,1.2-3.6,1.2h-47.31c-1.4,0-2.4-.4-2.99-1.2Z"/>
        <path class="cls-1" d="M372.58,48.36c-3.96-5.29-4.9-12.02-2.83-20.21,2.12-8.39,6.48-15.17,13.08-20.36,6.6-5.19,13.99-7.79,22.18-7.79s14.27,2.6,18.25,7.79c3.97,5.19,4.91,11.98,2.79,20.36-2.02,7.99-6.35,14.67-13,20.06-6.66,5.39-14.07,8.08-22.26,8.08s-14.26-2.64-18.21-7.94Z"/>
        <path class="cls-1" d="M533.07,67.98c.99-.8,2.2-1.2,3.6-1.2h47.31c1.39,0,2.39.4,2.99,1.2.59.8.72,1.9.36,3.29l-81.65,323.19c-.35,1.39-1.03,2.49-2.03,3.29-1,.79-2.2,1.2-3.6,1.2h-47.31c-1.4,0-2.4-.4-2.99-1.2-.6-.8-.72-1.9-.37-3.29l46.17-182.75c.15-.6.04-.94-.33-1.05-.38-.1-.81.05-1.31.45-9.31,9.18-21.25,13.77-35.82,13.77s-25.38-3.84-33.62-11.53c-8.24-7.68-13.22-17.62-14.93-29.8-1.57-11.18-.53-23.96,3.1-38.33,3.13-12.38,7.45-23.55,12.96-33.54,8.07-14.57,18.52-26.1,31.35-34.59,12.82-8.48,25.92-12.73,39.3-12.73,15.77,0,25.96,5.49,30.57,16.47.25.6.59.8,1.05.6.45-.2.75-.6.9-1.2l2.27-8.98c.35-1.39,1.03-2.49,2.03-3.29ZM512.58,144.34c2.22-8.78,2.54-15.97.95-21.56-1.88-6.78-6.31-10.18-13.3-10.18s-13.11,3.29-18.37,9.88c-4.41,5.59-7.75,12.88-10.01,21.86-2.37,9.39-2.76,16.87-1.18,22.46,1.73,6.59,6.19,9.88,13.37,9.88,6.78,0,12.76-3.09,17.92-9.28,4.65-5.79,8.2-13.47,10.62-23.06Z"/>
        <path class="cls-1" d="M699.26,67.98c.99-.8,2.2-1.2,3.6-1.2h47.31c1.39,0,2.39.4,2.99,1.2.59.8.72,1.9.37,3.29l-37.07,146.73c-.35,1.4-1.03,2.5-2.03,3.29-1,.8-2.2,1.2-3.6,1.2h-47.31c-1.4,0-2.4-.4-2.99-1.2-.6-.79-.72-1.9-.37-3.29l2.5-9.88c.15-.6.05-1-.3-1.2-.35-.2-.8,0-1.35.6-11.11,11.58-25.35,17.37-42.72,17.37-15.17,0-26-4.94-32.49-14.82-6.49-9.88-7.51-23.61-3.07-41.17l24.66-97.62c.35-1.39,1.03-2.49,2.03-3.29,1-.8,2.2-1.2,3.6-1.2h47.31c1.39,0,2.39.4,2.99,1.2.59.8.72,1.9.36,3.29l-21.56,85.34c-1.51,5.99-1.19,10.83.97,14.52,2.16,3.7,5.74,5.54,10.73,5.54,4.39,0,8.37-1.35,11.95-4.04,3.57-2.7,6.34-6.34,8.3-10.93.3-.4.55-1,.75-1.8l22.39-88.64c.35-1.39,1.03-2.49,2.03-3.29Z"/>
        <path class="cls-1" d="M904.47,147.03c-.81,3.2-1.54,5.69-2.19,7.49-.71,2.8-2.55,4.19-5.55,4.19h-89.84c-.8,0-1.3.4-1.5,1.2-.45,1.8-.19,3.89.8,6.29,1.14,3.4,3.96,6.24,8.48,8.53,4.51,2.3,9.96,3.44,16.35,3.44,5.39,0,10.58-.8,15.58-2.4,4.99-1.6,9.47-3.89,13.42-6.89,1.2-.8,2.3-1.2,3.3-1.2,1.39,0,2.34.6,2.84,1.8l15.42,29.05c.54,1,.67,2.1.36,3.29s-1.06,2.2-2.25,2.99c-8.7,6.79-18.66,11.83-29.87,15.12-11.21,3.29-22.81,4.94-34.79,4.94-18.57,0-33.45-3.89-44.66-11.68-11.21-7.79-17.99-18.87-20.35-33.24-1.77-10.38-1.14-21.56,1.88-33.54,3.18-12.58,7.8-23.75,13.86-33.54,9.22-15.17,21.1-27.05,35.65-35.63,14.54-8.58,30.2-12.88,46.97-12.88,12.77,0,23.85,2.99,33.22,8.98,9.37,5.99,16.27,14.22,20.71,24.7,4.44,10.48,5.99,22.31,4.66,35.49-.51,4.39-1.35,8.88-2.51,13.47ZM815.82,124.57l-2.03,3.29c-.35.6-.37,1.05-.04,1.35.32.3.68.45,1.08.45h34.14c.79,0,1.3-.4,1.5-1.2.2-.8.23-2.1.09-3.89-.04-3.79-1.34-6.74-3.91-8.83-2.57-2.1-6.15-3.14-10.73-3.14-8.19,0-14.89,4-20.1,11.98Z"/>
      </g>
      <g>
        <path class="cls-1" d="M554.1,381.97c-10.51-10.18-15.66-23.96-15.46-41.32-.18-7.19.84-15.17,3.06-23.96,2.47-9.78,5.91-18.66,10.33-26.65,8.98-16.57,21.1-29.59,36.37-39.08,15.27-9.48,32.19-14.22,50.76-14.22s32.99,4.74,43.27,14.22c10.28,9.48,15.77,22.31,16.48,38.48.28,8.39-.77,17.27-3.14,26.65-1.92,7.59-4.63,15.17-8.15,22.76-8.73,17.97-20.96,32.19-36.68,42.67-15.73,10.48-33.27,15.72-52.63,15.72s-33.7-5.09-44.2-15.27ZM624.38,343.79c4.07-3.49,7.44-8.13,10.11-13.92,1.75-3.79,3.29-8.28,4.6-13.48,1.16-4.59,1.82-9.18,1.98-13.77-.02-11.78-4.82-17.67-14.4-17.67s-17.76,5.89-23.33,17.67c-1.86,3.4-3.52,7.99-4.98,13.77-1.31,5.19-2.05,9.69-2.21,13.48-.23,12.78,4.54,19.16,14.32,19.16,5.19,0,9.82-1.75,13.9-5.24Z"/>
        <path class="cls-1" d="M826.9,240.33c.99-.8,2.2-1.2,3.6-1.2h47.31c1.39,0,2.39.4,2.99,1.2.59.8.72,1.9.37,3.29l-33.06,130.86c-7.21,28.55-20.58,48.86-40.1,60.94-19.52,12.08-41.76,18.12-66.71,18.12-11.18,0-21.44-.9-30.76-2.69-2.45-.6-3.31-2.3-2.61-5.09l12.01-40.43c.86-3.4,2.96-4.59,6.3-3.59,7.83,2.2,15.44,3.29,22.82,3.29,9.58,0,17.97-2,25.17-5.99,7.2-4,12.43-10.08,15.69-18.27.4-.8.37-1.3-.07-1.5-.45-.2-1.05,0-1.8.6-8.4,6.39-18.99,9.58-31.77,9.58-31.94,0-49.03-12.98-51.25-38.93-.88-9.98.38-21.66,3.76-35.04,3.73-14.77,9.01-27.35,15.82-37.73,7.97-12.58,18.02-22.56,30.17-29.94,12.15-7.38,24.91-11.08,38.29-11.08s23.29,4.19,28.57,12.58c.29.4.65.55,1.08.45.42-.1.71-.45.86-1.05l1.29-5.09c.35-1.39,1.03-2.49,2.03-3.29ZM806.79,315.2c2.02-7.98,2.56-14.47,1.62-19.47-1.58-7.19-6.36-10.78-14.35-10.78-6.99,0-13.16,3.49-18.52,10.48-4.61,5.59-7.94,12.48-10.01,20.66-2.02,7.99-2.36,14.48-1.02,19.46,1.83,6.99,6.73,10.48,14.72,10.48s14.43-3.39,19.34-10.18c3.3-5.19,6.04-12.08,8.21-20.66Z"/>
        <path class="cls-1" d="M864.22,393.65c-.6-.79-.72-1.9-.36-3.29l37.07-146.73c.35-1.39,1.03-2.49,2.03-3.29,1-.8,2.2-1.2,3.6-1.2h47.31c1.39,0,2.39.4,2.99,1.2.59.8.72,1.9.36,3.29l-37.07,146.73c-.35,1.4-1.03,2.5-2.03,3.29-1,.8-2.2,1.2-3.6,1.2h-47.31c-1.4,0-2.4-.4-2.99-1.2Z"/>
        <path class="cls-1" d="M914.95,220.72c-3.96-5.29-4.9-12.02-2.83-20.21,2.12-8.39,6.48-15.17,13.08-20.36,6.6-5.19,13.99-7.79,22.18-7.79s14.27,2.6,18.25,7.79c3.97,5.19,4.91,11.98,2.79,20.36-2.02,7.99-6.35,14.67-13,20.06-6.66,5.39-14.07,8.08-22.26,8.08s-14.26-2.64-18.21-7.94Z"/>
        <path class="cls-1" d="M971.56,384.82c-10.48-8.28-16.76-19.81-18.81-34.59-1.42-10.18-.54-21.56,2.64-34.14,3.13-12.38,7.97-23.66,14.54-33.84,9.17-14.17,21.17-25.3,35.99-33.39,14.81-8.08,30.61-12.13,47.38-12.13s30.92,4.24,41.85,12.73c10.93,8.49,17.08,19.12,18.44,31.89.49,3.59.43,7.39-.18,11.38l-.23.9c-.5,2-2.13,3.29-4.88,3.89l-48.31,7.49h-.9c-2.6,0-3.67-1.3-3.21-3.89l-.14-4.19c-.14-3.39-1.57-6.24-4.28-8.53-2.71-2.29-6.27-3.44-10.66-3.44-7.99,0-14.58,3.59-19.79,10.78-3.66,4.99-6.6,11.88-8.81,20.66-2.07,8.19-2.71,15.08-1.93,20.66,1.38,7.99,6.15,11.98,14.34,11.98,8.78,0,15.93-4.59,21.45-13.77l.6-1.2c1.46-3.39,3.5-4.79,6.15-4.19l44.75,7.79c2.44.6,3.39,2,2.84,4.19-.61,2.4-2.14,5.69-4.59,9.88-8.88,14.57-20.74,25.8-35.61,33.69-14.87,7.89-30.69,11.83-47.46,11.83s-30.69-4.14-41.18-12.43Z"/>
      </g>
    </g>
  </g>
</svg>